<mxfile host="Electron" modified="2024-02-07T09:06:18.292Z" agent="Mozilla/5.0 (Windows NT 10.0; Win64; x64) AppleWebKit/537.36 (KHTML, like Gecko) draw.io/23.0.2 Chrome/120.0.6099.109 Electron/28.1.0 Safari/537.36" etag="De7KcxjGnQfKU_g1iL4G" version="23.0.2" type="device">
  <diagram name="Seite-1" id="sbGtgg3dZyXzEFeaYso8">
    <mxGraphModel dx="1434" dy="844" grid="1" gridSize="10" guides="1" tooltips="1" connect="1" arrows="1" fold="1" page="1" pageScale="1" pageWidth="827" pageHeight="1169" math="0" shadow="0">
      <root>
        <mxCell id="0" />
        <mxCell id="1" parent="0" />
        <mxCell id="uZUDP2aGhClYcMFWK4le-20" value="" style="endArrow=none;html=1;rounded=0;" edge="1" parent="1" source="uZUDP2aGhClYcMFWK4le-57" target="uZUDP2aGhClYcMFWK4le-44">
          <mxGeometry width="50" height="50" relative="1" as="geometry">
            <mxPoint x="290" y="782" as="sourcePoint" />
            <mxPoint x="350" y="782" as="targetPoint" />
          </mxGeometry>
        </mxCell>
        <mxCell id="uZUDP2aGhClYcMFWK4le-21" value="" style="endArrow=none;html=1;rounded=0;" edge="1" parent="1" source="uZUDP2aGhClYcMFWK4le-44" target="uZUDP2aGhClYcMFWK4le-59">
          <mxGeometry width="50" height="50" relative="1" as="geometry">
            <mxPoint x="430" y="782" as="sourcePoint" />
            <mxPoint x="494" y="782" as="targetPoint" />
          </mxGeometry>
        </mxCell>
        <mxCell id="uZUDP2aGhClYcMFWK4le-22" value="N" style="text;html=1;align=center;verticalAlign=middle;resizable=0;points=[];autosize=1;strokeColor=none;fillColor=none;" vertex="1" parent="1">
          <mxGeometry x="320" y="672" width="30" height="30" as="geometry" />
        </mxCell>
        <mxCell id="uZUDP2aGhClYcMFWK4le-23" value="1" style="text;html=1;align=center;verticalAlign=middle;resizable=0;points=[];autosize=1;strokeColor=none;fillColor=none;" vertex="1" parent="1">
          <mxGeometry x="460" y="672" width="30" height="30" as="geometry" />
        </mxCell>
        <mxCell id="uZUDP2aGhClYcMFWK4le-25" value="" style="endArrow=none;html=1;rounded=0;" edge="1" parent="1" source="uZUDP2aGhClYcMFWK4le-51" target="uZUDP2aGhClYcMFWK4le-47">
          <mxGeometry width="50" height="50" relative="1" as="geometry">
            <mxPoint x="220" y="1012" as="sourcePoint" />
            <mxPoint x="220" y="972" as="targetPoint" />
          </mxGeometry>
        </mxCell>
        <mxCell id="uZUDP2aGhClYcMFWK4le-26" value="" style="endArrow=none;html=1;rounded=0;" edge="1" parent="1" source="uZUDP2aGhClYcMFWK4le-47" target="uZUDP2aGhClYcMFWK4le-57">
          <mxGeometry width="50" height="50" relative="1" as="geometry">
            <mxPoint x="220" y="892" as="sourcePoint" />
            <mxPoint x="220" y="842" as="targetPoint" />
          </mxGeometry>
        </mxCell>
        <mxCell id="uZUDP2aGhClYcMFWK4le-28" value="N" style="text;html=1;align=center;verticalAlign=middle;resizable=0;points=[];autosize=1;strokeColor=none;fillColor=none;" vertex="1" parent="1">
          <mxGeometry x="230" y="772" width="30" height="30" as="geometry" />
        </mxCell>
        <mxCell id="uZUDP2aGhClYcMFWK4le-29" value="M" style="text;html=1;align=center;verticalAlign=middle;resizable=0;points=[];autosize=1;strokeColor=none;fillColor=none;" vertex="1" parent="1">
          <mxGeometry x="230" y="990" width="30" height="30" as="geometry" />
        </mxCell>
        <mxCell id="uZUDP2aGhClYcMFWK4le-31" value="" style="endArrow=none;html=1;rounded=0;" edge="1" parent="1" source="uZUDP2aGhClYcMFWK4le-49" target="uZUDP2aGhClYcMFWK4le-46">
          <mxGeometry width="50" height="50" relative="1" as="geometry">
            <mxPoint x="510" y="1012" as="sourcePoint" />
            <mxPoint x="432.1428571428571" y="949.8571428571429" as="targetPoint" />
          </mxGeometry>
        </mxCell>
        <mxCell id="uZUDP2aGhClYcMFWK4le-32" value="" style="endArrow=none;html=1;rounded=0;" edge="1" parent="1" source="uZUDP2aGhClYcMFWK4le-46" target="uZUDP2aGhClYcMFWK4le-57">
          <mxGeometry width="50" height="50" relative="1" as="geometry">
            <mxPoint x="387.6470588235295" y="914.3529411764707" as="sourcePoint" />
            <mxPoint x="290" y="836.4444444444446" as="targetPoint" />
          </mxGeometry>
        </mxCell>
        <mxCell id="uZUDP2aGhClYcMFWK4le-33" value="M" style="text;html=1;align=center;verticalAlign=middle;resizable=0;points=[];autosize=1;strokeColor=none;fillColor=none;" vertex="1" parent="1">
          <mxGeometry x="500" y="990" width="30" height="30" as="geometry" />
        </mxCell>
        <mxCell id="uZUDP2aGhClYcMFWK4le-34" value="N" style="text;html=1;align=center;verticalAlign=middle;resizable=0;points=[];autosize=1;strokeColor=none;fillColor=none;" vertex="1" parent="1">
          <mxGeometry x="290" y="760" width="30" height="30" as="geometry" />
        </mxCell>
        <mxCell id="uZUDP2aGhClYcMFWK4le-39" value="" style="endArrow=none;html=1;rounded=0;" edge="1" parent="1" source="uZUDP2aGhClYcMFWK4le-49" target="uZUDP2aGhClYcMFWK4le-45">
          <mxGeometry width="50" height="50" relative="1" as="geometry">
            <mxPoint x="564.6399999999999" y="1012" as="sourcePoint" />
            <mxPoint x="564.3174603174605" y="971.6825396825395" as="targetPoint" />
          </mxGeometry>
        </mxCell>
        <mxCell id="uZUDP2aGhClYcMFWK4le-40" value="" style="endArrow=none;html=1;rounded=0;" edge="1" parent="1" source="uZUDP2aGhClYcMFWK4le-45" target="uZUDP2aGhClYcMFWK4le-59">
          <mxGeometry width="50" height="50" relative="1" as="geometry">
            <mxPoint x="564" y="892" as="sourcePoint" />
            <mxPoint x="564" y="842" as="targetPoint" />
          </mxGeometry>
        </mxCell>
        <mxCell id="uZUDP2aGhClYcMFWK4le-41" value="M" style="text;html=1;align=center;verticalAlign=middle;resizable=0;points=[];autosize=1;strokeColor=none;fillColor=none;" vertex="1" parent="1">
          <mxGeometry x="590" y="990" width="30" height="30" as="geometry" />
        </mxCell>
        <mxCell id="uZUDP2aGhClYcMFWK4le-42" value="N" style="text;html=1;align=center;verticalAlign=middle;resizable=0;points=[];autosize=1;strokeColor=none;fillColor=none;" vertex="1" parent="1">
          <mxGeometry x="580" y="760" width="30" height="30" as="geometry" />
        </mxCell>
        <mxCell id="uZUDP2aGhClYcMFWK4le-44" value="stellt aus" style="shape=rhombus;perimeter=rhombusPerimeter;whiteSpace=wrap;html=1;align=center;" vertex="1" parent="1">
          <mxGeometry x="340" y="672" width="120" height="60" as="geometry" />
        </mxCell>
        <mxCell id="uZUDP2aGhClYcMFWK4le-45" value="sieht" style="shape=rhombus;perimeter=rhombusPerimeter;whiteSpace=wrap;html=1;align=center;rotation=90;" vertex="1" parent="1">
          <mxGeometry x="515" y="862" width="120" height="60" as="geometry" />
        </mxCell>
        <mxCell id="uZUDP2aGhClYcMFWK4le-46" value="sieht" style="shape=rhombus;perimeter=rhombusPerimeter;whiteSpace=wrap;html=1;align=center;rotation=0;" vertex="1" parent="1">
          <mxGeometry x="350" y="862" width="120" height="60" as="geometry" />
        </mxCell>
        <mxCell id="uZUDP2aGhClYcMFWK4le-47" value="hat" style="shape=rhombus;perimeter=rhombusPerimeter;whiteSpace=wrap;html=1;align=center;rotation=90;" vertex="1" parent="1">
          <mxGeometry x="170" y="862" width="120" height="60" as="geometry" />
        </mxCell>
        <mxCell id="uZUDP2aGhClYcMFWK4le-49" value="&lt;b&gt;User&lt;/b&gt;" style="swimlane;childLayout=stackLayout;horizontal=1;startSize=50;horizontalStack=0;rounded=1;fontSize=14;fontStyle=0;strokeWidth=2;resizeParent=0;resizeLast=1;shadow=0;dashed=0;align=center;arcSize=4;whiteSpace=wrap;html=1;" vertex="1" parent="1">
          <mxGeometry x="495" y="1020" width="160" height="120" as="geometry" />
        </mxCell>
        <mxCell id="uZUDP2aGhClYcMFWK4le-50" value="+ID&lt;br&gt;+Name" style="align=left;strokeColor=none;fillColor=none;spacingLeft=4;fontSize=12;verticalAlign=top;resizable=0;rotatable=0;part=1;html=1;" vertex="1" parent="uZUDP2aGhClYcMFWK4le-49">
          <mxGeometry y="50" width="160" height="70" as="geometry" />
        </mxCell>
        <mxCell id="uZUDP2aGhClYcMFWK4le-51" value="&lt;b&gt;Category&lt;/b&gt;" style="swimlane;childLayout=stackLayout;horizontal=1;startSize=50;horizontalStack=0;rounded=1;fontSize=14;fontStyle=0;strokeWidth=2;resizeParent=0;resizeLast=1;shadow=0;dashed=0;align=center;arcSize=4;whiteSpace=wrap;html=1;" vertex="1" parent="1">
          <mxGeometry x="150" y="1020" width="160" height="120" as="geometry" />
        </mxCell>
        <mxCell id="uZUDP2aGhClYcMFWK4le-52" value="+ID&lt;br&gt;+Name" style="align=left;strokeColor=none;fillColor=none;spacingLeft=4;fontSize=12;verticalAlign=top;resizable=0;rotatable=0;part=1;html=1;" vertex="1" parent="uZUDP2aGhClYcMFWK4le-51">
          <mxGeometry y="50" width="160" height="70" as="geometry" />
        </mxCell>
        <mxCell id="uZUDP2aGhClYcMFWK4le-57" value="&lt;b&gt;Job&lt;/b&gt;" style="swimlane;childLayout=stackLayout;horizontal=1;startSize=50;horizontalStack=0;rounded=1;fontSize=14;fontStyle=0;strokeWidth=2;resizeParent=0;resizeLast=1;shadow=0;dashed=0;align=center;arcSize=4;whiteSpace=wrap;html=1;" vertex="1" parent="1">
          <mxGeometry x="150" y="640" width="160" height="120" as="geometry" />
        </mxCell>
        <mxCell id="uZUDP2aGhClYcMFWK4le-58" value="+ID&lt;br&gt;+Name&lt;br&gt;+Beschreibung" style="align=left;strokeColor=none;fillColor=none;spacingLeft=4;fontSize=12;verticalAlign=top;resizable=0;rotatable=0;part=1;html=1;" vertex="1" parent="uZUDP2aGhClYcMFWK4le-57">
          <mxGeometry y="50" width="160" height="70" as="geometry" />
        </mxCell>
        <mxCell id="uZUDP2aGhClYcMFWK4le-59" value="&lt;b&gt;Company&lt;/b&gt;" style="swimlane;childLayout=stackLayout;horizontal=1;startSize=50;horizontalStack=0;rounded=1;fontSize=14;fontStyle=0;strokeWidth=2;resizeParent=0;resizeLast=1;shadow=0;dashed=0;align=center;arcSize=4;whiteSpace=wrap;html=1;" vertex="1" parent="1">
          <mxGeometry x="495" y="640" width="160" height="120" as="geometry" />
        </mxCell>
        <mxCell id="uZUDP2aGhClYcMFWK4le-60" value="+ID&lt;br&gt;+Name&lt;br&gt;+GruendungsJahr" style="align=left;strokeColor=none;fillColor=none;spacingLeft=4;fontSize=12;verticalAlign=top;resizable=0;rotatable=0;part=1;html=1;" vertex="1" parent="uZUDP2aGhClYcMFWK4le-59">
          <mxGeometry y="50" width="160" height="70" as="geometry" />
        </mxCell>
        <mxCell id="uZUDP2aGhClYcMFWK4le-64" value="sieht" style="shape=rhombus;perimeter=rhombusPerimeter;whiteSpace=wrap;html=1;align=center;" vertex="1" parent="1">
          <mxGeometry x="350" y="1050" width="120" height="60" as="geometry" />
        </mxCell>
        <mxCell id="uZUDP2aGhClYcMFWK4le-65" value="" style="endArrow=none;html=1;rounded=0;" edge="1" parent="1" source="uZUDP2aGhClYcMFWK4le-51" target="uZUDP2aGhClYcMFWK4le-64">
          <mxGeometry relative="1" as="geometry">
            <mxPoint x="530" y="952" as="sourcePoint" />
            <mxPoint x="690" y="952" as="targetPoint" />
          </mxGeometry>
        </mxCell>
        <mxCell id="uZUDP2aGhClYcMFWK4le-67" value="" style="endArrow=none;html=1;rounded=0;" edge="1" parent="1" source="uZUDP2aGhClYcMFWK4le-64" target="uZUDP2aGhClYcMFWK4le-49">
          <mxGeometry relative="1" as="geometry">
            <mxPoint x="530" y="952" as="sourcePoint" />
            <mxPoint x="690" y="952" as="targetPoint" />
          </mxGeometry>
        </mxCell>
        <mxCell id="uZUDP2aGhClYcMFWK4le-68" value="M" style="text;html=1;align=center;verticalAlign=middle;resizable=0;points=[];autosize=1;strokeColor=none;fillColor=none;" vertex="1" parent="1">
          <mxGeometry x="470" y="1050" width="30" height="30" as="geometry" />
        </mxCell>
        <mxCell id="uZUDP2aGhClYcMFWK4le-69" value="N" style="text;html=1;align=center;verticalAlign=middle;resizable=0;points=[];autosize=1;strokeColor=none;fillColor=none;" vertex="1" parent="1">
          <mxGeometry x="305" y="1050" width="30" height="30" as="geometry" />
        </mxCell>
        <mxCell id="uZUDP2aGhClYcMFWK4le-70" value="Startseite" style="rounded=1;whiteSpace=wrap;html=1;" vertex="1" parent="1">
          <mxGeometry x="376" y="215" width="120" height="60" as="geometry" />
        </mxCell>
        <mxCell id="uZUDP2aGhClYcMFWK4le-78" value="" style="endArrow=none;html=1;rounded=0;" edge="1" parent="1">
          <mxGeometry width="50" height="50" relative="1" as="geometry">
            <mxPoint x="266" y="315" as="sourcePoint" />
            <mxPoint x="586" y="315" as="targetPoint" />
          </mxGeometry>
        </mxCell>
        <mxCell id="uZUDP2aGhClYcMFWK4le-79" value="" style="endArrow=none;html=1;rounded=0;" edge="1" parent="1" target="uZUDP2aGhClYcMFWK4le-70">
          <mxGeometry width="50" height="50" relative="1" as="geometry">
            <mxPoint x="436" y="315" as="sourcePoint" />
            <mxPoint x="471" y="355" as="targetPoint" />
          </mxGeometry>
        </mxCell>
        <mxCell id="uZUDP2aGhClYcMFWK4le-80" value="" style="endArrow=none;html=1;rounded=0;" edge="1" parent="1">
          <mxGeometry width="50" height="50" relative="1" as="geometry">
            <mxPoint x="586" y="355" as="sourcePoint" />
            <mxPoint x="586" y="315" as="targetPoint" />
          </mxGeometry>
        </mxCell>
        <mxCell id="uZUDP2aGhClYcMFWK4le-81" value="" style="endArrow=none;html=1;rounded=0;" edge="1" parent="1">
          <mxGeometry width="50" height="50" relative="1" as="geometry">
            <mxPoint x="386" y="355" as="sourcePoint" />
            <mxPoint x="386" y="315" as="targetPoint" />
          </mxGeometry>
        </mxCell>
        <mxCell id="uZUDP2aGhClYcMFWK4le-83" value="" style="endArrow=none;html=1;rounded=0;" edge="1" parent="1">
          <mxGeometry width="50" height="50" relative="1" as="geometry">
            <mxPoint x="266" y="355" as="sourcePoint" />
            <mxPoint x="266" y="315" as="targetPoint" />
          </mxGeometry>
        </mxCell>
        <mxCell id="uZUDP2aGhClYcMFWK4le-84" value="" style="endArrow=none;html=1;rounded=0;" edge="1" parent="1">
          <mxGeometry width="50" height="50" relative="1" as="geometry">
            <mxPoint x="484.78" y="355" as="sourcePoint" />
            <mxPoint x="484.78" y="315" as="targetPoint" />
          </mxGeometry>
        </mxCell>
        <mxCell id="uZUDP2aGhClYcMFWK4le-86" value="Companies" style="rounded=1;whiteSpace=wrap;html=1;" vertex="1" parent="1">
          <mxGeometry x="242" y="356" width="68" height="20" as="geometry" />
        </mxCell>
        <mxCell id="uZUDP2aGhClYcMFWK4le-87" value="Jobs" style="rounded=1;whiteSpace=wrap;html=1;" vertex="1" parent="1">
          <mxGeometry x="361" y="356" width="50" height="20" as="geometry" />
        </mxCell>
        <mxCell id="uZUDP2aGhClYcMFWK4le-88" value="ueber uns" style="rounded=1;whiteSpace=wrap;html=1;" vertex="1" parent="1">
          <mxGeometry x="453" y="356" width="65" height="20" as="geometry" />
        </mxCell>
        <mxCell id="uZUDP2aGhClYcMFWK4le-89" value="Impressum" style="rounded=1;whiteSpace=wrap;html=1;" vertex="1" parent="1">
          <mxGeometry x="556" y="356" width="64" height="20" as="geometry" />
        </mxCell>
        <mxCell id="uZUDP2aGhClYcMFWK4le-92" value="" style="endArrow=none;html=1;rounded=0;" edge="1" parent="1">
          <mxGeometry width="50" height="50" relative="1" as="geometry">
            <mxPoint x="242" y="475" as="sourcePoint" />
            <mxPoint x="242" y="365" as="targetPoint" />
          </mxGeometry>
        </mxCell>
        <mxCell id="uZUDP2aGhClYcMFWK4le-93" value="" style="endArrow=none;html=1;rounded=0;" edge="1" parent="1">
          <mxGeometry width="50" height="50" relative="1" as="geometry">
            <mxPoint x="361" y="475" as="sourcePoint" />
            <mxPoint x="361" y="365" as="targetPoint" />
          </mxGeometry>
        </mxCell>
        <mxCell id="uZUDP2aGhClYcMFWK4le-97" value="Suche" style="rounded=1;whiteSpace=wrap;html=1;" vertex="1" parent="1">
          <mxGeometry x="196" y="475" width="60" height="20" as="geometry" />
        </mxCell>
        <mxCell id="uZUDP2aGhClYcMFWK4le-98" value="Suche" style="rounded=1;whiteSpace=wrap;html=1;" vertex="1" parent="1">
          <mxGeometry x="316" y="475" width="60" height="20" as="geometry" />
        </mxCell>
        <mxCell id="uZUDP2aGhClYcMFWK4le-107" value="&lt;font style=&quot;font-size: 24px;&quot;&gt;&lt;b&gt;SiteMap&lt;/b&gt;&lt;/font&gt;" style="text;html=1;align=center;verticalAlign=middle;resizable=0;points=[];autosize=1;strokeColor=none;fillColor=none;" vertex="1" parent="1">
          <mxGeometry x="376" y="170" width="120" height="40" as="geometry" />
        </mxCell>
        <mxCell id="uZUDP2aGhClYcMFWK4le-110" value="&lt;font style=&quot;font-size: 24px;&quot;&gt;&lt;b&gt;ERM&lt;/b&gt;&lt;/font&gt;" style="text;html=1;align=center;verticalAlign=middle;resizable=0;points=[];autosize=1;strokeColor=none;fillColor=none;" vertex="1" parent="1">
          <mxGeometry x="350" y="584.5" width="80" height="40" as="geometry" />
        </mxCell>
        <mxCell id="uZUDP2aGhClYcMFWK4le-117" value="&lt;b&gt;User-Rechte&lt;/b&gt;" style="swimlane;fontStyle=0;childLayout=stackLayout;horizontal=1;startSize=30;horizontalStack=0;resizeParent=1;resizeParentMax=0;resizeLast=0;collapsible=1;marginBottom=0;whiteSpace=wrap;html=1;" vertex="1" parent="1">
          <mxGeometry x="358" y="70" width="140" height="60" as="geometry" />
        </mxCell>
        <mxCell id="uZUDP2aGhClYcMFWK4le-118" value="Lesen" style="text;strokeColor=none;fillColor=none;align=left;verticalAlign=middle;spacingLeft=4;spacingRight=4;overflow=hidden;points=[[0,0.5],[1,0.5]];portConstraint=eastwest;rotatable=0;whiteSpace=wrap;html=1;" vertex="1" parent="uZUDP2aGhClYcMFWK4le-117">
          <mxGeometry y="30" width="140" height="30" as="geometry" />
        </mxCell>
        <mxCell id="uZUDP2aGhClYcMFWK4le-121" value="&lt;font style=&quot;font-size: 24px;&quot;&gt;&lt;b&gt;Rechte&lt;/b&gt;&lt;/font&gt;" style="text;html=1;align=center;verticalAlign=middle;resizable=0;points=[];autosize=1;strokeColor=none;fillColor=none;" vertex="1" parent="1">
          <mxGeometry x="373" width="100" height="40" as="geometry" />
        </mxCell>
        <mxCell id="uZUDP2aGhClYcMFWK4le-122" value="" style="endArrow=none;html=1;rounded=0;" edge="1" parent="1">
          <mxGeometry width="50" height="50" relative="1" as="geometry">
            <mxPoint x="196" y="550" as="sourcePoint" />
            <mxPoint x="196" y="475" as="targetPoint" />
          </mxGeometry>
        </mxCell>
        <mxCell id="uZUDP2aGhClYcMFWK4le-123" value="Company" style="rounded=1;whiteSpace=wrap;html=1;" vertex="1" parent="1">
          <mxGeometry x="170" y="550" width="60" height="20" as="geometry" />
        </mxCell>
        <mxCell id="uZUDP2aGhClYcMFWK4le-124" value="" style="endArrow=none;html=1;rounded=0;" edge="1" parent="1">
          <mxGeometry width="50" height="50" relative="1" as="geometry">
            <mxPoint x="316" y="550" as="sourcePoint" />
            <mxPoint x="316" y="475" as="targetPoint" />
          </mxGeometry>
        </mxCell>
        <mxCell id="uZUDP2aGhClYcMFWK4le-125" value="Job" style="rounded=1;whiteSpace=wrap;html=1;" vertex="1" parent="1">
          <mxGeometry x="290" y="550" width="60" height="20" as="geometry" />
        </mxCell>
      </root>
    </mxGraphModel>
  </diagram>
</mxfile>
